<?xml version="1.0" encoding="UTF-8" standalone="no"?>
<!DOCTYPE svg PUBLIC "-//W3C//DTD SVG 1.1//EN" "http://www.w3.org/Graphics/SVG/1.1/DTD/svg11.dtd">
<svg width="100%" height="100%" viewBox="0 0 256 256" version="1.1" xmlns="http://www.w3.org/2000/svg" xmlns:xlink="http://www.w3.org/1999/xlink" xml:space="preserve" xmlns:serif="http://www.serif.com/" style="fill-rule:evenodd;clip-rule:evenodd;stroke-linejoin:round;stroke-miterlimit:2;">
    <path d="M17.063,38.394L49.93,5.527L238.937,5.527L238.937,250.473L17.063,250.473L17.063,38.394Z" style="fill:rgb(235,235,235);"/>
    <path d="M238.937,250.473L17.063,250.473L17.063,38.394L49.93,5.527L238.937,5.527L238.937,250.473ZM18.063,38.808L18.063,249.473L237.937,249.473L237.937,6.527L50.345,6.527L18.063,38.808Z"/>
    <g transform="matrix(7.57055,0,0,7.57055,-628.467,-627.973)">
        <g transform="matrix(12,0,0,12,89.5972,101.675)">
            <path d="M0.684,-0.691L0.684,-0.645C0.684,-0.515 0.709,-0.459 0.831,-0.459L0.904,-0.459C0.931,-0.459 0.962,-0.461 0.98,-0.469C0.975,-0.509 0.972,-0.566 0.97,-0.609C0.953,-0.602 0.921,-0.599 0.901,-0.599L0.846,-0.599C0.829,-0.599 0.827,-0.613 0.827,-0.643L0.827,-0.825L0.432,-0.825L0.432,-0.718C0.432,-0.652 0.42,-0.585 0.292,-0.536C0.32,-0.515 0.374,-0.458 0.392,-0.43C0.531,-0.49 0.568,-0.593 0.572,-0.691L0.684,-0.691ZM0.341,-0.741C0.297,-0.77 0.209,-0.814 0.152,-0.84L0.071,-0.734C0.13,-0.702 0.216,-0.653 0.256,-0.622L0.341,-0.741ZM0.286,-0.472C0.242,-0.501 0.152,-0.544 0.095,-0.57L0.017,-0.462C0.076,-0.431 0.164,-0.383 0.204,-0.352L0.286,-0.472ZM0.235,-0.324C0.177,-0.208 0.104,-0.087 0.053,-0.012L0.175,0.081C0.233,-0.018 0.291,-0.127 0.341,-0.232L0.235,-0.324ZM0.725,-0.29C0.699,-0.247 0.666,-0.209 0.627,-0.177C0.581,-0.209 0.543,-0.247 0.514,-0.29L0.725,-0.29ZM0.827,-0.43L0.801,-0.425L0.35,-0.425L0.35,-0.29L0.459,-0.29L0.373,-0.261C0.409,-0.2 0.451,-0.146 0.5,-0.1C0.436,-0.071 0.364,-0.051 0.283,-0.038C0.31,-0.006 0.342,0.055 0.356,0.094C0.459,0.071 0.55,0.04 0.629,-0.005C0.704,0.038 0.791,0.07 0.891,0.09C0.911,0.05 0.953,-0.012 0.986,-0.044C0.903,-0.057 0.828,-0.077 0.762,-0.104C0.835,-0.176 0.89,-0.27 0.925,-0.392L0.827,-0.43Z" style="fill-rule:nonzero;"/>
        </g>
        <g transform="matrix(12,0,0,12,101.597,101.675)">
            <path d="M0.218,-0.26C0.184,-0.17 0.12,-0.078 0.05,-0.022C0.085,-0.001 0.145,0.045 0.173,0.071C0.244,0.002 0.319,-0.11 0.364,-0.22L0.218,-0.26ZM0.891,-0.31L0.892,-0.451L0.626,-0.451L0.626,-0.567L0.478,-0.567L0.478,-0.451L0.332,-0.451C0.365,-0.494 0.399,-0.541 0.432,-0.591L0.941,-0.591L0.941,-0.73L0.517,-0.73C0.532,-0.757 0.546,-0.784 0.56,-0.812L0.397,-0.866C0.378,-0.82 0.355,-0.773 0.333,-0.73L0.067,-0.73L0.067,-0.591L0.251,-0.591C0.227,-0.554 0.207,-0.526 0.194,-0.512C0.16,-0.47 0.139,-0.449 0.106,-0.44C0.125,-0.398 0.151,-0.323 0.159,-0.293C0.168,-0.304 0.23,-0.31 0.282,-0.31L0.478,-0.31L0.478,-0.076C0.478,-0.062 0.473,-0.058 0.456,-0.058C0.439,-0.057 0.383,-0.058 0.335,-0.06C0.356,-0.02 0.381,0.046 0.388,0.088C0.462,0.088 0.522,0.084 0.567,0.06C0.613,0.037 0.626,-0.003 0.626,-0.073L0.626,-0.31L0.891,-0.31ZM0.662,-0.202C0.727,-0.124 0.806,-0.016 0.839,0.052L0.973,-0.015C0.935,-0.085 0.851,-0.187 0.786,-0.26L0.662,-0.202Z" style="fill-rule:nonzero;"/>
        </g>
        <g transform="matrix(12,0,0,12,89.5972,113.675)">
            <path d="M0.538,-0.578L0.454,-0.578L0.454,-0.666L0.538,-0.666L0.538,-0.578ZM0.776,-0.445L0.776,-0.33C0.772,-0.329 0.767,-0.328 0.759,-0.328L0.703,-0.328C0.678,-0.328 0.675,-0.331 0.675,-0.368L0.675,-0.445L0.776,-0.445ZM0.233,-0.096L0.233,-0.223C0.249,-0.205 0.263,-0.186 0.271,-0.173C0.409,-0.232 0.447,-0.341 0.453,-0.445L0.538,-0.445L0.538,-0.367C0.538,-0.234 0.562,-0.193 0.679,-0.193L0.776,-0.193L0.776,-0.096L0.233,-0.096ZM0.324,-0.445C0.319,-0.39 0.301,-0.339 0.233,-0.298L0.233,-0.445L0.324,-0.445ZM0.953,-0.666L0.953,-0.806L0.043,-0.806L0.043,-0.666L0.325,-0.666L0.325,-0.578L0.092,-0.578L0.092,0.091L0.233,0.091L0.233,0.037L0.776,0.037L0.776,0.091L0.924,0.091L0.924,-0.578L0.675,-0.578L0.675,-0.666L0.953,-0.666Z" style="fill-rule:nonzero;"/>
        </g>
        <g transform="matrix(12,0,0,12,101.597,113.675)">
            <path d="M0.249,-0.631L0.249,-0.301L0.191,-0.301L0.191,-0.631L0.249,-0.631ZM0.38,-0.16L0.38,-0.771L0.059,-0.771L0.059,-0.078L0.191,-0.078L0.191,-0.16L0.38,-0.16ZM0.975,-0.489L0.874,-0.489L0.874,-0.683L0.941,-0.683L0.941,-0.818L0.405,-0.818L0.405,-0.683L0.731,-0.683L0.731,-0.489L0.565,-0.489C0.573,-0.542 0.581,-0.597 0.587,-0.647L0.45,-0.657C0.439,-0.557 0.42,-0.43 0.402,-0.349L0.622,-0.349C0.547,-0.242 0.434,-0.141 0.318,-0.08C0.352,-0.051 0.4,0.006 0.425,0.043C0.54,-0.03 0.648,-0.139 0.731,-0.262L0.731,-0.073C0.731,-0.057 0.725,-0.052 0.708,-0.052C0.69,-0.052 0.634,-0.052 0.582,-0.054C0.602,-0.013 0.623,0.054 0.628,0.095C0.711,0.095 0.774,0.09 0.818,0.067C0.861,0.043 0.874,0.004 0.874,-0.072L0.874,-0.349L0.975,-0.349L0.975,-0.489Z" style="fill-rule:nonzero;"/>
        </g>
    </g>
</svg>
